<svg width="42" height="43" viewBox="0 0 42 43" fill="none" xmlns="http://www.w3.org/2000/svg">
<mask id="mask0_1_42" style="mask-type:luminance" maskUnits="userSpaceOnUse" x="0" y="0" width="42" height="43">
<path d="M42 0H0V42.2546H42V0Z" fill="white"/>
</mask>
<g mask="url(#mask0_1_42)">
<path d="M3.96831 28.2587L0.644794 36.1185C-0.287706 38.3189 -0.463064 40.8283 1.87217 41.7024C2.43008 41.9134 2.99595 42.0114 3.56183 42.0114C5.36307 42.0114 7.07663 40.9866 7.78597 39.3061L8.45547 37.7235L13.5803 25.6137L18.6811 13.549C19.8985 11.4045 20.645 8.10438 25.4238 6.32982C21.7086 5.85047 14.2193 4.86407 14.1444 4.86407C14.0965 4.93943 13.5962 5.70435 13.5484 5.77971C13.4447 5.9455 13.3411 6.11882 13.2614 6.29968C13.2535 6.31474 13.2535 6.32229 13.2455 6.32982L3.97628 28.2437C3.97628 28.2437 3.96831 28.2512 3.96831 28.2587Z" fill="url(#paint0_radial_1_42)"/>
<path d="M37.1946 28.2585L40.5181 36.1182C41.4505 38.3186 41.6259 40.8281 39.2907 41.7022C38.7328 41.9132 38.1669 42.0112 37.6011 42.0112C35.7998 42.0112 34.0862 40.9863 33.3769 39.3059L32.7074 37.7233L27.5827 25.6134L22.4818 13.5488C21.2645 11.4043 19.2094 6.97129 13.7211 5.53833C14.4145 3.90309 16.7911 3.62427 18.6481 3.62427H23.6853H23.7251C23.9243 3.6318 24.1157 3.65441 24.3229 3.68455C24.4265 3.69963 24.5381 3.69963 24.6417 3.72222C24.7771 3.75237 24.9047 3.80512 25.0403 3.8428C25.1917 3.88801 25.3431 3.91815 25.4866 3.97845C25.5502 4.00859 25.614 4.04626 25.6778 4.0764C25.877 4.16683 26.0683 4.25727 26.2516 4.3703C26.3792 4.44565 26.4827 4.55115 26.6024 4.64159C26.7059 4.72448 26.8255 4.79983 26.9211 4.89025C27.0089 4.98069 27.0885 5.08619 27.1762 5.18415C27.2798 5.30473 27.3914 5.41022 27.479 5.53833C27.5268 5.61369 27.5668 5.70412 27.6146 5.77947C27.7182 5.94526 27.8217 6.11858 27.9015 6.29944C27.9095 6.31452 27.9095 6.32205 27.9174 6.32958L37.1867 28.2434C37.1867 28.2434 37.1946 28.2509 37.1946 28.2585Z" fill="url(#paint1_radial_1_42)"/>
</g>
<defs>
<radialGradient id="paint0_radial_1_42" cx="0" cy="0" r="1" gradientUnits="userSpaceOnUse" gradientTransform="translate(15.7797 8.97975) rotate(112.29) scale(36.1734 24.5863)">
<stop stop-color="#142167"/>
<stop offset="1" stop-color="#263DB5"/>
</radialGradient>
<radialGradient id="paint1_radial_1_42" cx="0" cy="0" r="1" gradientUnits="userSpaceOnUse" gradientTransform="translate(38.4968 12.0575) rotate(132.238) scale(33.514 117.194)">
<stop stop-color="#4259D4"/>
<stop offset="1" stop-color="#6A81FC"/>
</radialGradient>
</defs>
</svg>
